<svg width="615" height="322" viewBox="0 0 615 322" fill="none" xmlns="http://www.w3.org/2000/svg">
<g filter="url(#filter0_d_669_78)">
<path d="M10 90.2111H133.947V118.794H46.7755V174.056H149.747L140.213 197.194L139.395 198.556L137.489 204H10V90.2111ZM137.489 39.3056H10V8.54444H149.747L137.489 39.3056Z" fill="url(#paint0_linear_669_78)"/>
<path d="M174.943 204L245.225 106L174.943 8.54444L219.891 8L267.563 74.6944L316.052 8.54444H361L290.718 106L360.183 204H315.235L267.563 137.85L220.708 204H174.943Z" fill="url(#paint1_linear_669_78)"/>
<path d="M10 89.4611H9.25V90.2111V204V204.75H10H137.489H138.021L138.196 204.248L140.078 198.876L140.856 197.581L140.885 197.532L140.906 197.48L150.441 174.341L150.867 173.306H149.747H47.5255V119.544H133.947H134.697V118.794V90.2111V89.4611H133.947H10ZM137.489 40.0556H137.997L138.185 39.5832L150.444 8.82208L150.853 7.79444H149.747H10H9.25V8.54444V39.3056V40.0556H10H137.489ZM174.334 203.563L173.482 204.75H174.943H220.708H221.096L221.32 204.434L267.568 139.14L314.626 204.439L314.851 204.75H315.235H360.183H361.634L360.795 203.566L291.64 106.004L361.608 8.98313L362.466 7.79444H361H316.052H315.672L315.447 8.10104L267.571 73.4154L220.501 7.56387L220.273 7.24531L219.882 7.25006L174.934 7.79449L173.49 7.81198L174.335 8.98314L244.301 106.001L174.334 203.563Z" stroke="url(#paint2_linear_669_78)" stroke-width="1.5"/>
</g>
<path d="M413.48 86H376.4C375.6 86 375.2 85.52 375.2 84.56V10.28C375.2 9.32 375.6 8.84 376.4 8.84H413.48C414.44 8.84 414.92 9.28 414.92 10.16V12.92C414.92 13.8 414.44 14.24 413.48 14.24H382.4C381.6 14.24 381.2 14.6 381.2 15.32V42.92C381.2 43.64 381.6 44 382.4 44H410.12C411 44 411.44 44.44 411.44 45.32V48.08C411.44 48.96 411 49.4 410.12 49.4H382.4C381.6 49.4 381.2 49.76 381.2 50.48V79.52C381.2 80.24 381.6 80.6 382.4 80.6H413.48C414.44 80.6 414.92 81.04 414.92 81.92V84.68C414.92 85.56 414.44 86 413.48 86ZM431.773 86H427.693C426.813 86 426.573 85.52 426.973 84.56L448.933 45.32L428.173 10.28C427.933 9.88 427.893 9.55999 428.053 9.31999C428.293 9 428.613 8.84 429.013 8.84H432.733C433.773 8.84 434.493 9.32 434.893 10.28L452.893 41.12H453.373L471.133 10.28C471.693 9.32 472.373 8.84 473.173 8.84H477.133C478.173 8.84 478.453 9.32 477.973 10.28L457.213 45.2L479.053 84.56C479.613 85.52 479.373 86 478.333 86H474.253C473.533 86 472.933 85.6 472.453 84.8L453.253 50H452.773L433.573 84.8C433.093 85.6 432.493 86 431.773 86ZM509.522 80.6H523.202C526.882 80.6 529.682 79.6 531.602 77.6C533.602 75.52 534.602 72.56 534.602 68.72V26.12C534.602 22.28 533.602 19.36 531.602 17.36C529.682 15.28 526.882 14.24 523.202 14.24H509.522C505.842 14.24 503.042 15.28 501.122 17.36C499.202 19.44 498.242 22.36 498.242 26.12V68.72C498.242 72.48 499.202 75.4 501.122 77.48C503.042 79.56 505.842 80.6 509.522 80.6ZM523.802 86H509.042C503.842 86 499.722 84.48 496.682 81.44C493.722 78.4 492.242 74.24 492.242 68.96V25.88C492.242 20.6 493.722 16.44 496.682 13.4C499.722 10.36 503.842 8.84 509.042 8.84H523.802C529.002 8.84 533.082 10.36 536.042 13.4C539.082 16.44 540.602 20.6 540.602 25.88V68.96C540.602 74.24 539.082 78.4 536.042 81.44C533.082 84.48 529.002 86 523.802 86ZM564.45 86H560.97C560.17 86 559.77 85.52 559.77 84.56V10.28C559.77 9.32 560.17 8.84 560.97 8.84H588.33C593.53 8.84 597.65 10.36 600.69 13.4C603.73 16.44 605.25 20.6 605.25 25.88V37.28C605.25 41.76 604.09 45.44 601.77 48.32C599.53 51.2 596.45 53.04 592.53 53.84V54.32L606.81 84.56C607.29 85.52 607.01 86 605.97 86H602.25C601.21 86 600.49 85.52 600.09 84.56L585.93 54.32H566.97C566.17 54.32 565.77 54.68 565.77 55.4V84.56C565.77 85.52 565.33 86 564.45 86ZM566.97 49.16H587.73C591.41 49.16 594.25 48.16 596.25 46.16C598.25 44.08 599.25 41.16 599.25 37.4V26.12C599.25 22.36 598.25 19.44 596.25 17.36C594.25 15.28 591.41 14.24 587.73 14.24H566.97C566.17 14.24 565.77 14.6 565.77 15.32V48.08C565.77 48.8 566.17 49.16 566.97 49.16ZM376.178 184.404V179.436C376.178 178.424 376.684 177.918 377.696 177.918H381.698C382.71 177.918 383.216 178.424 383.216 179.436V183.99C383.216 193.19 387.678 197.79 396.602 197.79H410.954C419.878 197.79 424.34 193.144 424.34 183.852V178.056C424.34 174.008 422.684 170.834 419.372 168.534C416.06 166.234 412.058 164.578 407.366 163.566C402.674 162.554 397.936 161.496 393.152 160.392C388.46 159.288 384.458 157.264 381.146 154.32C377.834 151.376 376.178 147.42 376.178 142.452V134.862C376.178 128.79 377.926 124.006 381.422 120.51C384.918 117.014 389.656 115.266 395.636 115.266H411.644C417.624 115.266 422.362 117.014 425.858 120.51C429.354 124.006 431.102 128.79 431.102 134.862V138.726C431.102 139.738 430.596 140.244 429.584 140.244H425.582C424.57 140.244 424.064 139.738 424.064 138.726V135.276C424.064 126.076 419.602 121.476 410.678 121.476H396.464C387.632 121.476 383.216 126.168 383.216 135.552V142.452C383.216 148.8 388.874 153.078 400.19 155.286C404.882 156.206 409.574 157.264 414.266 158.46C419.05 159.656 423.098 161.818 426.41 164.946C429.722 168.074 431.378 172.306 431.378 177.642V184.404C431.378 190.476 429.63 195.26 426.134 198.756C422.638 202.252 417.9 204 411.92 204H395.636C389.656 204 384.918 202.252 381.422 198.756C377.926 195.26 376.178 190.476 376.178 184.404ZM451.874 204H447.596C446.584 204 446.262 203.448 446.63 202.344L474.092 116.922C474.368 115.818 475.012 115.266 476.024 115.266H482.51C483.43 115.266 484.074 115.818 484.442 116.922L511.904 202.344C512.18 203.448 511.858 204 510.938 204H506.522C505.602 204 505.004 203.448 504.728 202.344L497.276 180.264H461.12L453.668 202.344C453.3 203.448 452.702 204 451.874 204ZM478.922 122.856L463.052 174.054H495.482L479.474 122.856H478.922ZM535.392 116.922V202.344C535.392 203.448 534.886 204 533.874 204H529.872C528.952 204 528.492 203.448 528.492 202.344V116.922C528.492 115.818 528.952 115.266 529.872 115.266H533.874C534.886 115.266 535.392 115.818 535.392 116.922ZM553.673 202.482V198.894C553.673 197.79 553.857 197.008 554.225 196.548L599.351 122.304V121.752H556.847C555.743 121.752 555.191 121.246 555.191 120.234V116.784C555.191 115.772 555.743 115.266 556.847 115.266H605.561C606.665 115.266 607.217 115.772 607.217 116.784V121.338C607.217 122.166 606.987 122.948 606.527 123.684L561.815 196.962V197.514H606.941C608.045 197.514 608.597 197.974 608.597 198.894V202.482C608.597 203.494 608.045 204 606.941 204H555.191C554.179 204 553.673 203.494 553.673 202.482Z" fill="white" fill-opacity="0.8"/>
<path d="M16.1529 308H9.53789C8.34789 308 7.75289 307.405 7.75289 306.215V242.27C7.75289 241.08 8.34789 240.485 9.53789 240.485H34.5279C39.6379 240.485 43.6279 241.92 46.4979 244.79C49.3679 247.59 50.8029 251.58 50.8029 256.76V267.68C50.8029 272.79 49.3679 276.78 46.4979 279.65C43.6279 282.52 39.6379 283.955 34.5279 283.955H19.1979C18.3579 283.955 17.9379 284.305 17.9379 285.005V306.215C17.9379 307.405 17.3429 308 16.1529 308ZM19.0929 274.925H33.0579C38.0279 274.925 40.5129 272.335 40.5129 267.155V257.18C40.5129 252 38.0279 249.41 33.0579 249.41H19.0929C18.3229 249.41 17.9379 249.76 17.9379 250.46V273.875C17.9379 274.575 18.3229 274.925 19.0929 274.925ZM73.9365 242.27V306.215C73.9365 307.405 73.3415 308 72.1515 308H65.5365C64.3465 308 63.7515 307.405 63.7515 306.215V242.27C63.7515 241.08 64.3465 240.485 65.5365 240.485H72.1515C73.3415 240.485 73.9365 241.08 73.9365 242.27ZM125.589 308H91.5691C90.3791 308 89.7841 307.405 89.7841 306.215V242.27C89.7841 241.08 90.3791 240.485 91.5691 240.485H98.1841C99.3741 240.485 99.9691 241.08 99.9691 242.27V297.815C99.9691 298.515 100.389 298.865 101.229 298.865H125.589C126.779 298.865 127.374 299.495 127.374 300.755V306.215C127.374 307.405 126.779 308 125.589 308ZM153.75 299.075H162.885C167.995 299.075 170.55 296.485 170.55 291.305V257.18C170.55 252 167.995 249.41 162.885 249.41H153.75C148.71 249.41 146.19 252 146.19 257.18V291.305C146.19 296.485 148.71 299.075 153.75 299.075ZM164.46 308H152.28C147.1 308 143.075 306.565 140.205 303.695C137.405 300.825 136.005 296.835 136.005 291.725V256.76C136.005 251.58 137.405 247.59 140.205 244.79C143.075 241.92 147.1 240.485 152.28 240.485H164.46C169.64 240.485 173.665 241.92 176.535 244.79C179.405 247.59 180.84 251.58 180.84 256.76V291.725C180.84 296.835 179.405 300.825 176.535 303.695C173.665 306.565 169.64 308 164.46 308ZM213.469 308H206.854C205.594 308 204.964 307.405 204.964 306.215V250.46C204.964 249.76 204.614 249.41 203.914 249.41H190.684C189.424 249.41 188.794 248.815 188.794 247.625V242.27C188.794 241.08 189.424 240.485 190.684 240.485H229.639C230.899 240.485 231.529 241.08 231.529 242.27V247.625C231.529 248.815 230.899 249.41 229.639 249.41H216.409C215.639 249.41 215.254 249.76 215.254 250.46V306.215C215.254 307.405 214.659 308 213.469 308ZM311.736 240.485H323.496C324.686 240.485 325.281 241.08 325.281 242.27V306.215C325.281 307.405 324.686 308 323.496 308H316.986C315.796 308 315.201 307.405 315.201 306.215V253.19H314.781L301.131 291.62C300.711 292.74 299.941 293.3 298.821 293.3H292.101C291.051 293.3 290.316 292.74 289.896 291.62L275.931 253.085H275.511V306.215C275.511 306.915 275.371 307.405 275.091 307.685C274.881 307.895 274.426 308 273.726 308H267.321C266.131 308 265.536 307.405 265.536 306.215V242.27C265.536 241.08 266.131 240.485 267.321 240.485H279.081C279.851 240.485 280.411 240.87 280.761 241.64L295.146 282.17H295.671L310.161 241.64C310.301 240.87 310.826 240.485 311.736 240.485ZM344.27 308H336.71C335.73 308 335.38 307.405 335.66 306.215L353.93 242.27C354.28 241.08 355.12 240.485 356.45 240.485H366.95C368.35 240.485 369.19 241.08 369.47 242.27L387.74 306.215C388.02 307.405 387.635 308 386.585 308H379.13C378.5 308 378.045 307.895 377.765 307.685C377.555 307.405 377.38 306.915 377.24 306.215L373.25 292.565H350.15L346.16 306.215C345.88 307.405 345.25 308 344.27 308ZM361.49 250.565L352.25 284.165H371.255L361.91 250.565H361.49ZM406.414 308H399.904C398.714 308 398.119 307.405 398.119 306.215V242.27C398.119 241.08 398.714 240.485 399.904 240.485H405.784C406.904 240.485 407.674 240.87 408.094 241.64L433.504 287.315H433.924V242.27C433.924 241.08 434.519 240.485 435.709 240.485H442.219C443.409 240.485 444.004 241.08 444.004 242.27V306.215C444.004 307.405 443.409 308 442.219 308H436.549C435.429 308 434.519 307.44 433.819 306.32L408.619 261.17H408.199V306.215C408.199 307.405 407.604 308 406.414 308ZM494.615 240.485H501.23C502.49 240.485 503.12 241.045 503.12 242.165V291.725C503.12 296.835 501.65 300.825 498.71 303.695C495.84 306.565 491.85 308 486.74 308H475.085C469.975 308 465.985 306.565 463.115 303.695C460.245 300.825 458.81 296.835 458.81 291.725V242.27C458.81 241.08 459.405 240.485 460.595 240.485H467.21C468.4 240.485 468.995 241.08 468.995 242.27V291.305C468.995 296.485 471.515 299.075 476.555 299.075H485.165C490.275 299.075 492.83 296.485 492.83 291.305V242.27C492.83 241.08 493.425 240.485 494.615 240.485ZM521.457 308H513.897C512.917 308 512.567 307.405 512.847 306.215L531.117 242.27C531.467 241.08 532.307 240.485 533.637 240.485H544.137C545.537 240.485 546.377 241.08 546.657 242.27L564.927 306.215C565.207 307.405 564.822 308 563.772 308H556.317C555.687 308 555.232 307.895 554.952 307.685C554.742 307.405 554.567 306.915 554.427 306.215L550.437 292.565H527.337L523.347 306.215C523.067 307.405 522.437 308 521.457 308ZM538.677 250.565L529.437 284.165H548.442L539.097 250.565H538.677ZM611.112 308H577.092C575.902 308 575.307 307.405 575.307 306.215V242.27C575.307 241.08 575.902 240.485 577.092 240.485H583.707C584.897 240.485 585.492 241.08 585.492 242.27V297.815C585.492 298.515 585.912 298.865 586.752 298.865H611.112C612.302 298.865 612.897 299.495 612.897 300.755V306.215C612.897 307.405 612.302 308 611.112 308Z" fill="white" fill-opacity="0.8"/>
<defs>
<filter id="filter0_d_669_78" x="3.5" y="1.4906" width="365.431" height="209.009" filterUnits="userSpaceOnUse" color-interpolation-filters="sRGB">
<feFlood flood-opacity="0" result="BackgroundImageFix"/>
<feColorMatrix in="SourceAlpha" type="matrix" values="0 0 0 0 0 0 0 0 0 0 0 0 0 0 0 0 0 0 127 0" result="hardAlpha"/>
<feOffset/>
<feGaussianBlur stdDeviation="2.5"/>
<feComposite in2="hardAlpha" operator="out"/>
<feColorMatrix type="matrix" values="0 0 0 0 0.0823529 0 0 0 0 1 0 0 0 0 1 0 0 0 1 0"/>
<feBlend mode="normal" in2="BackgroundImageFix" result="effect1_dropShadow_669_78"/>
<feBlend mode="normal" in="SourceGraphic" in2="effect1_dropShadow_669_78" result="shape"/>
</filter>
<linearGradient id="paint0_linear_669_78" x1="-3.89325" y1="-5.61111" x2="278.265" y2="239.637" gradientUnits="userSpaceOnUse">
<stop stop-color="#27BEFF"/>
<stop offset="1" stop-color="#002B52"/>
</linearGradient>
<linearGradient id="paint1_linear_669_78" x1="-3.89325" y1="-5.61111" x2="278.265" y2="239.637" gradientUnits="userSpaceOnUse">
<stop stop-color="#27BEFF"/>
<stop offset="1" stop-color="#002B52"/>
</linearGradient>
<linearGradient id="paint2_linear_669_78" x1="185.433" y1="-5.61111" x2="185.433" y2="285.667" gradientUnits="userSpaceOnUse">
<stop stop-color="#BEEAF8"/>
<stop offset="1" stop-color="#25B8F7"/>
</linearGradient>
</defs>
</svg>
